<svg xmlns="http://www.w3.org/2000/svg" viewBox="0 0 16 16" width="16px" height="16px"><path fill="#7accff" d="M11.575,15.5c-0.649,0-1.291-0.159-1.856-0.459l-0.153-0.082l-0.171,0.031 c-0.429,0.078-0.869,0.118-1.31,0.118c-3.932,0-7.131-3.151-7.131-7.025c0-0.473,0.049-0.947,0.145-1.411l0.04-0.191L1.038,6.314 C0.687,5.726,0.5,5.051,0.5,4.363C0.5,2.233,2.261,0.5,4.426,0.5c0.742,0,1.465,0.206,2.09,0.594l0.16,0.1l0.188-0.031 C7.265,1.094,7.676,1.06,8.085,1.06c3.933,0,7.133,3.151,7.133,7.024c0,0.507-0.056,1.014-0.166,1.507l-0.039,0.175l0.081,0.16 c0.27,0.532,0.406,1.107,0.406,1.712C15.5,13.767,13.739,15.5,11.575,15.5z"/><path fill="#788b9c" d="M4.426,1c0.649,0,1.28,0.179,1.826,0.519l0.322,0.2l0.373-0.063 c0.376-0.064,0.76-0.096,1.139-0.096c3.657,0,6.632,2.927,6.632,6.524c0,0.474-0.052,0.944-0.153,1.397l-0.079,0.351l0.163,0.321 C14.882,10.612,15,11.112,15,11.637C15,13.492,13.464,15,11.575,15c-0.568,0-1.129-0.138-1.622-0.401l-0.307-0.163l-0.342,0.062 c-0.399,0.073-0.809,0.11-1.219,0.11c-3.656,0-6.631-2.927-6.631-6.525c0-0.438,0.045-0.879,0.134-1.31l0.079-0.381l-0.2-0.334 C1.162,5.546,1,4.96,1,4.363C1,2.508,2.537,1,4.426,1 M4.426,0C1.982,0,0,1.954,0,4.363c0,0.806,0.222,1.56,0.609,2.208 C0.508,7.06,0.454,7.566,0.454,8.083c0,4.157,3.416,7.525,7.631,7.525c0.478,0,0.944-0.043,1.399-0.126 C10.105,15.813,10.819,16,11.575,16C14.019,16,16,14.047,16,11.637c0-0.696-0.164-1.354-0.46-1.938 c0.117-0.521,0.178-1.062,0.178-1.616c0-4.155-3.417-7.524-7.632-7.524c-0.445,0-0.881,0.038-1.306,0.11 C6.098,0.246,5.292,0,4.426,0L4.426,0z"/><path fill="#fff" d="M11.012,10.797c-0.27,0.377-0.669,0.675-1.186,0.887C9.315,11.893,8.701,12,8.003,12	c-0.838,0-1.541-0.145-2.089-0.432c-0.392-0.209-0.716-0.492-0.96-0.841C4.706,10.375,4.58,10.025,4.58,9.688	c0-0.21,0.082-0.394,0.243-0.543c0.16-0.148,0.365-0.222,0.609-0.222c0.2,0,0.373,0.059,0.514,0.176	C6.081,9.21,6.196,9.376,6.288,9.59c0.103,0.234,0.216,0.43,0.336,0.586c0.114,0.149,0.279,0.275,0.489,0.372	c0.212,0.099,0.496,0.149,0.848,0.149c0.482,0,0.877-0.101,1.175-0.301c0.291-0.195,0.432-0.431,0.432-0.718	c0-0.227-0.074-0.406-0.225-0.545C9.184,8.986,8.973,8.872,8.72,8.794C8.454,8.713,8.094,8.625,7.649,8.532	c-0.606-0.128-1.12-0.28-1.528-0.451C5.701,7.906,5.364,7.663,5.117,7.359C4.867,7.049,4.74,6.662,4.74,6.205	c0-0.435,0.133-0.827,0.397-1.164c0.26-0.335,0.642-0.597,1.133-0.775C6.753,4.089,7.329,4,7.981,4c0.521,0,0.98,0.059,1.363,0.177	c0.384,0.118,0.709,0.277,0.963,0.473c0.257,0.198,0.447,0.41,0.567,0.629c0.121,0.222,0.182,0.442,0.182,0.656	c0,0.206-0.08,0.393-0.239,0.556c-0.159,0.164-0.361,0.246-0.599,0.246c-0.216,0-0.386-0.051-0.503-0.153	C9.606,6.488,9.492,6.339,9.366,6.126C9.221,5.853,9.045,5.638,8.843,5.487C8.647,5.34,8.318,5.265,7.869,5.265	c-0.418,0-0.758,0.082-1.01,0.246C6.614,5.668,6.496,5.849,6.496,6.063c0,0.131,0.038,0.24,0.116,0.335	c0.084,0.099,0.2,0.187,0.348,0.26c0.154,0.076,0.311,0.137,0.469,0.18c0.162,0.044,0.434,0.11,0.808,0.195	c0.472,0.1,0.906,0.211,1.29,0.332c0.388,0.123,0.725,0.274,0.998,0.45c0.279,0.18,0.5,0.41,0.657,0.685	c0.157,0.276,0.236,0.617,0.236,1.014C11.42,9.988,11.283,10.419,11.012,10.797z"/></svg>